<?xml version="1.0" encoding="utf-8"?>
<!-- Generator: Adobe Illustrator 17.1.0, SVG Export Plug-In . SVG Version: 6.00 Build 0)  -->
<!DOCTYPE svg PUBLIC "-//W3C//DTD SVG 1.1//EN" "http://www.w3.org/Graphics/SVG/1.1/DTD/svg11.dtd">
<svg version="1.1" id="Layer_1" xmlns="http://www.w3.org/2000/svg" xmlns:xlink="http://www.w3.org/1999/xlink" x="0px" y="0px"
	 viewBox="0 0 250 250" enable-background="new 0 0 250 250" xml:space="preserve">
<g id="auPPQv.tif">
	<g>
		<path fill="#FFFFFF" d="M-0.7,250c0-83.6,0-167.2,0-250.7c83.6,0,167.2,0,250.7,0c0,83.6,0,167.2,0,250.7
			C166.4,250,82.8,250-0.7,250z M15.2,15.1c0,73.3,0,146.2,0,218.9c73.3,0,146.1,0,218.9,0c0-73.2,0-145.9,0-218.9
			C161.1,15.1,88.4,15.1,15.2,15.1z"/>
		<path fill="#FFFFFF" d="M61,60.8c24.4,0,48.5,0,72.8,0c0,7.2,0,14.2,0,21.8c-15.1,0-30.3,0-45.7,0c0,9.6,0,18.6,0,27.9
			c14.3,0,28.1,0,42.4,0c0,7.2,0,13.9,0,21.4c-13.9,0-27.9,0-42.6,0c0,16.5,0,32.4,0,48.6c-9.3,0-18,0-27,0C61,140.8,61,101,61,60.8
			z"/>
		<path fill="#FFFFFF" d="M188.5,159.3c0,9.8,0,19.2,0,28.6c-19.2,4.2-40.2-10.5-40.7-30.2c-0.9-32.1-0.2-64.2-0.2-96.7
			c9.5,0,18.8,0,29.1,0c0,1.8,0,3.8,0,5.7c0,26.2,0,52.4,0,78.5C176.6,155.8,177.5,157,188.5,159.3z"/>
	</g>
</g>
</svg>
