<?xml version="1.0" encoding="utf-8"?>
<!-- Generator: Adobe Illustrator 17.1.0, SVG Export Plug-In . SVG Version: 6.00 Build 0)  -->
<!DOCTYPE svg PUBLIC "-//W3C//DTD SVG 1.1//EN" "http://www.w3.org/Graphics/SVG/1.1/DTD/svg11.dtd">
<svg version="1.1" id="Layer_1" xmlns="http://www.w3.org/2000/svg" xmlns:xlink="http://www.w3.org/1999/xlink" x="0px" y="0px"
	 viewBox="0 0 250 250" enable-background="new 0 0 250 250" xml:space="preserve">
<g id="_x38_yYPXn.tif">
	<g>
		<path fill="#FFFFFF" d="M0,250C0,166.7,0,83.3,0,0c83.3,0,166.7,0,250,0c0,83.3,0,166.7,0,250C166.7,250,83.3,250,0,250z
			 M15.9,15.8c0,73.1,0,145.8,0,218.3c73.1,0,145.7,0,218.3,0c0-73,0-145.5,0-218.3C161.4,15.8,88.8,15.8,15.9,15.8z"/>
		<path fill="#FFFFFF" d="M72.9,143.6c0,13.8,0,28.2,0,42.9c-9.3,0-18,0-27.2,0c0-40.9,0-81.7,0-123c19.1-2.1,38.2-4.5,57.2-0.4
			c20.4,4.4,31.3,17.3,31.6,36.3c0.3,20.8-10.5,35.7-30.6,40.4C94.2,142.1,84,142.4,72.9,143.6z M73.4,120.5
			c15.8,2.3,26.5-1.3,31.2-10c3.6-6.8,2.9-16.1-1.6-21.4c-5.7-6.7-19-9.1-29.6-5.2C73.4,96,73.4,108.1,73.4,120.5z"/>
		<path fill="#FFFFFF" d="M200.9,99.8c-1.6,6.3-3.1,12.3-4.7,18.2c-5.4-1.4-10.5-2.8-15.7-4c-1.2-0.3-2.6-0.5-3.8-0.4
			c-4.7,0.4-9.8,0.7-10.9,6.5c-1.1,5.5,3.6,7.2,7.4,8.9c5.4,2.4,11,4.2,16.3,6.8c10.6,5.3,16,13.8,15.2,25.9
			c-0.7,11.4-6.8,19.1-17,23.1c-17.2,6.8-34.2,5.2-51.3-1.9c1.7-6.8,3.3-13.2,4.6-18.2c9.5,1.6,18.4,3.3,27.5,4.4
			c4.3,0.5,8.3-1.3,9.2-6.1c1-5-2.6-7.4-6.5-9c-4.6-2-9.4-3.4-13.9-5.5c-14.1-6.5-19.4-14.7-18.4-27.7c0.8-11.1,9.7-20.6,22.7-24.4
			C173.3,92.8,189.3,94.1,200.9,99.8z"/>
	</g>
</g>
</svg>
