<?xml version="1.0" encoding="utf-8"?>
<!-- Generator: Adobe Illustrator 17.1.0, SVG Export Plug-In . SVG Version: 6.00 Build 0)  -->
<!DOCTYPE svg PUBLIC "-//W3C//DTD SVG 1.1//EN" "http://www.w3.org/Graphics/SVG/1.1/DTD/svg11.dtd">
<svg version="1.1" id="Layer_1" xmlns="http://www.w3.org/2000/svg" xmlns:xlink="http://www.w3.org/1999/xlink" x="0px" y="0px"
	 viewBox="0 0 250 250" enable-background="new 0 0 250 250" xml:space="preserve">
<g id="_x35_wHwWj.tif">
	<g>
		<path d="M0,250C0,166.7,0,83.3,0,0c83.3,0,166.7,0,250,0c0,83.3,0,166.7,0,250C166.7,250,83.3,250,0,250z M234.2,15.9
			c-73.1,0-145.8,0-218.3,0c0,73,0,145.7,0,218.3c73,0,145.5,0,218.3,0C234.2,161.4,234.2,88.8,234.2,15.9z"/>
		<path d="M161.1,188.7c-10.1,0-19.7,0-29.5,0c-2.7-9.1-5.6-18-8.1-27c-0.9-3.3-2.4-4.4-5.8-4.3c-8.9,0.2-17.8,0.2-26.7,0
			c-3.5-0.1-4.8,1.2-5.6,4.5c-1.9,7.7-4.4,15.2-6.3,22.9c-0.8,3.1-2,4.2-5.2,4.1c-7.9-0.2-15.8-0.1-24.5-0.1
			c3.7-11.9,7.1-23.2,10.5-34.4c8.5-27.6,17.1-55.2,25.3-83c1.3-4.3,3.2-5.4,7.3-5.3c8.9,0.3,17.8,0.2,26.7,0c2.8,0,4.4,0.7,5.2,3.5
			C136.5,109.3,148.7,148.7,161.1,188.7z M104.3,87.8c-0.3,0-0.6,0.1-1,0.1c-4.2,16.1-8.4,32.2-12.6,48.5c9.5,0,18.1,0,27.2,0
			C113.3,120,108.8,103.9,104.3,87.8z"/>
		<path d="M199.7,100.4c0,29.5,0,58.7,0,88.2c-9,0-17.8,0-27.1,0c0-29.2,0-58.5,0-88.2C181.4,100.4,190.4,100.4,199.7,100.4z"/>
		<path d="M185.8,61.1c8.5-0.1,14.7,5.7,14.9,13.8c0.2,7.8-6.3,13.9-14.8,14c-8.2,0.1-14.3-5.6-14.5-13.5
			C171.3,67.1,177.2,61.2,185.8,61.1z"/>
	</g>
</g>
</svg>
