<?xml version="1.0" encoding="utf-8"?>
<!-- Generator: Adobe Illustrator 17.1.0, SVG Export Plug-In . SVG Version: 6.00 Build 0)  -->
<!DOCTYPE svg PUBLIC "-//W3C//DTD SVG 1.1//EN" "http://www.w3.org/Graphics/SVG/1.1/DTD/svg11.dtd">
<svg version="1.1" id="Layer_1" xmlns="http://www.w3.org/2000/svg" xmlns:xlink="http://www.w3.org/1999/xlink" x="0px" y="0px"
	 viewBox="0 0 500 500" enable-background="new 0 0 500 500" xml:space="preserve">
<g>
	<g>
		<path fill="#00A79D" d="M431,433.1l-80.9-170.5c37.8-10.2,56.7-31.4,56.7-63.7V144c0-51.3-32-77-95.9-77.1h-35h-69.8h-2.2v144.2
			h69.8v-92.1h4.4h9.2h16.3c20.9,0,31.3,8.3,31.3,25V199c0,11.7-6.5,19.5-19.6,23.3c-3.7,1-10.6,1.5-20.6,1.5h-7.4h-13.6H141v-157
			H69v366.3h72v-157h58.1h4.7h69.8h15.2l63.2,157H431z"/>
	</g>
	<g>
		<rect x="203.9" y="288.9" fill="#00A79D" width="69.8" height="144.2"/>
	</g>
</g>
</svg>
