<?xml version="1.0" encoding="utf-8"?>
<!-- Generator: Adobe Illustrator 17.1.0, SVG Export Plug-In . SVG Version: 6.00 Build 0)  -->
<!DOCTYPE svg PUBLIC "-//W3C//DTD SVG 1.1//EN" "http://www.w3.org/Graphics/SVG/1.1/DTD/svg11.dtd">
<svg version="1.1" id="Layer_1" xmlns="http://www.w3.org/2000/svg" xmlns:xlink="http://www.w3.org/1999/xlink" x="0px" y="0px"
	 viewBox="0 0 500 500" enable-background="new 0 0 500 500" xml:space="preserve">
<path fill="#FFFFFF" d="M0,500C0,333.4,0,166.6,0,0c166.6,0,333.4,0,500,0c0,166.6,0,333.4,0,500C333.4,500,166.6,500,0,500z
	 M468.4,31.8c-146.2,0-291.6,0-436.6,0c0,146,0,291.4,0,436.6c146,0,291,0,436.6,0C468.4,322.8,468.4,177.6,468.4,31.8z"/>
<g id="AkcUE8.tif">
	<g>
		<path fill="#FFFFFF" d="M382.2,364c0,2,0,3.9,0,6c-1.9,0.8-3.9,2-5.8,2c-13.6,0.2-27.4,0-41.2,0.2c-4.4,0-5.8-2-6-6.1
			c-0.2-4.1-0.8-8-1.3-12.7c-3.9,3.4-6.9,6.7-10.5,9.4c-31.2,23.2-76.8,15.5-98.1-18.5c-22.6-35.7-23-73.8-3.4-110.9
			c14.1-26.6,38.1-39,68.2-38.4c13.6,0.3,26.5,3.9,38.1,13.6c0-3,0-4.9,0-6.9c0-23.7,0-47.5,0-71.1c0-7.2,0.3-7.5,7.7-7.5
			c14.1,0,28.2,0,42.3,0c8.6,0,8.6,0,8.6,8.5c0,71,0,141.8,0.2,212.8C381.1,350.8,381.9,357.4,382.2,364z M323,283.3
			c-0.2,0-0.5,0-0.6,0c0-4.9,0-9.9,0-14.7c-0.2-11.8-8.3-22.9-19-26.5c-11.1-3.8-23.7-0.2-31.3,9.1c-12.8,15.7-14.1,48.4-2.2,64.7
			c7.5,10.5,18,14.3,30.4,11.6c11.4-2.4,18.5-10,20.7-21.5C322.4,298.6,322.4,290.8,323,283.3z"/>
		<path fill="#FFFFFF" d="M117.8,137.1c2.2-0.6,4.4-1.6,6.6-1.6c15-0.2,30.1,0.2,45.3-0.2c5.3-0.2,7.1,1.9,7.1,7.2
			c-0.2,74-0.2,148.1,0,222c0,5.5-1.4,7.7-7.2,7.7c-14.9-0.3-29.8,0-44.7-0.2c-2.4,0-4.7-1.4-6.9-2
			C117.8,292.4,117.8,214.6,117.8,137.1z"/>
	</g>
</g>
</svg>
