<?xml version="1.0" encoding="utf-8"?>
<!-- Generator: Adobe Illustrator 17.1.0, SVG Export Plug-In . SVG Version: 6.00 Build 0)  -->
<!DOCTYPE svg PUBLIC "-//W3C//DTD SVG 1.1//EN" "http://www.w3.org/Graphics/SVG/1.1/DTD/svg11.dtd">
<svg version="1.1" id="Layer_1" xmlns="http://www.w3.org/2000/svg" xmlns:xlink="http://www.w3.org/1999/xlink" x="0px" y="0px"
	 viewBox="0 0 250 250" enable-background="new 0 0 250 250" xml:space="preserve">
<path d="M0,250C0,166.7,0,83.3,0,0c83.3,0,166.7,0,250,0c0,83.3,0,166.7,0,250C166.7,250,83.3,250,0,250z M234.2,15.9
	c-73.1,0-145.8,0-218.3,0c0,73,0,145.7,0,218.3c73,0,145.5,0,218.3,0C234.2,161.4,234.2,88.8,234.2,15.9z"/>
<g id="AkcUE8.tif">
	<g>
		<path d="M209.4,197.8c0,1.3,0,2.5,0,3.8c-1.2,0.5-2.5,1.3-3.7,1.3c-8.7,0.1-17.5,0-26.3,0.1c-2.8,0-3.7-1.3-3.8-3.9
			c-0.1-2.6-0.5-5.1-0.8-8.1c-2.5,2.2-4.4,4.3-6.7,6c-19.9,14.8-49,9.9-62.6-11.8c-14.4-22.8-14.7-47.1-2.2-70.8
			c9-17,24.3-24.9,43.5-24.5c8.7,0.2,16.9,2.5,24.3,8.7c0-1.9,0-3.1,0-4.4c0-15.1,0-30.3,0-45.4c0-4.6,0.2-4.8,4.9-4.8
			c9,0,18,0,27,0c5.5,0,5.5,0,5.5,5.4c0,45.3,0,90.5,0.1,135.8C208.7,189.4,209.2,193.6,209.4,197.8z M171.6,146.3
			c-0.1,0-0.3,0-0.4,0c0-3.1,0-6.3,0-9.4c-0.1-7.5-5.3-14.6-12.1-16.9c-7.1-2.4-15.1-0.1-20,5.8c-8.2,10-9,30.9-1.4,41.3
			c4.8,6.7,11.5,9.1,19.4,7.4c7.3-1.5,11.8-6.4,13.2-13.7C171.2,156.1,171.2,151.1,171.6,146.3z"/>
		<path d="M40.6,53c1.4-0.4,2.8-1,4.2-1c9.6-0.1,19.2,0.1,28.9-0.1c3.4-0.1,4.5,1.2,4.5,4.6c-0.1,47.2-0.1,94.5,0,141.7
			c0,3.5-0.9,4.9-4.6,4.9c-9.5-0.2-19,0-28.5-0.1c-1.5,0-3-0.9-4.4-1.3C40.6,152.1,40.6,102.5,40.6,53z"/>
	</g>
</g>
</svg>
